<mxfile host="Electron" agent="Mozilla/5.0 (X11; Linux x86_64) AppleWebKit/537.36 (KHTML, like Gecko) draw.io/26.1.1 Chrome/132.0.6834.210 Electron/34.5.0 Safari/537.36" version="26.1.1">
  <diagram name="Page-1" id="0MRVWRIOqz95eaR4ipgQ">
    <mxGraphModel dx="818" dy="483" grid="1" gridSize="10" guides="1" tooltips="1" connect="1" arrows="1" fold="1" page="1" pageScale="1" pageWidth="850" pageHeight="1100" math="0" shadow="0">
      <root>
        <mxCell id="0" />
        <mxCell id="1" parent="0" />
        <mxCell id="64EpxRwVbbQgUjMSI_ka-10" style="edgeStyle=orthogonalEdgeStyle;rounded=1;orthogonalLoop=1;jettySize=auto;html=1;exitX=1;exitY=0.5;exitDx=0;exitDy=0;entryX=0;entryY=0.5;entryDx=0;entryDy=0;endArrow=none;startFill=0;" edge="1" parent="1" source="64EpxRwVbbQgUjMSI_ka-2" target="64EpxRwVbbQgUjMSI_ka-13">
          <mxGeometry relative="1" as="geometry">
            <mxPoint x="270" y="195" as="targetPoint" />
          </mxGeometry>
        </mxCell>
        <mxCell id="64EpxRwVbbQgUjMSI_ka-127" style="edgeStyle=orthogonalEdgeStyle;rounded=1;orthogonalLoop=1;jettySize=auto;html=1;exitX=0.5;exitY=0;exitDx=0;exitDy=0;entryX=0.5;entryY=1;entryDx=0;entryDy=0;endArrow=none;startFill=0;" edge="1" parent="1" source="64EpxRwVbbQgUjMSI_ka-2" target="64EpxRwVbbQgUjMSI_ka-126">
          <mxGeometry relative="1" as="geometry" />
        </mxCell>
        <mxCell id="64EpxRwVbbQgUjMSI_ka-128" style="edgeStyle=orthogonalEdgeStyle;rounded=1;orthogonalLoop=1;jettySize=auto;html=1;exitX=1;exitY=0;exitDx=0;exitDy=0;entryX=0.5;entryY=1;entryDx=0;entryDy=0;endArrow=none;startFill=0;" edge="1" parent="1" source="64EpxRwVbbQgUjMSI_ka-2" target="64EpxRwVbbQgUjMSI_ka-80">
          <mxGeometry relative="1" as="geometry" />
        </mxCell>
        <mxCell id="64EpxRwVbbQgUjMSI_ka-129" style="edgeStyle=orthogonalEdgeStyle;rounded=1;orthogonalLoop=1;jettySize=auto;html=1;exitX=0.75;exitY=0;exitDx=0;exitDy=0;entryX=0.5;entryY=1;entryDx=0;entryDy=0;endArrow=none;startFill=0;" edge="1" parent="1" source="64EpxRwVbbQgUjMSI_ka-2" target="64EpxRwVbbQgUjMSI_ka-79">
          <mxGeometry relative="1" as="geometry" />
        </mxCell>
        <mxCell id="64EpxRwVbbQgUjMSI_ka-130" style="edgeStyle=orthogonalEdgeStyle;rounded=1;orthogonalLoop=1;jettySize=auto;html=1;exitX=0;exitY=0.5;exitDx=0;exitDy=0;entryX=0.5;entryY=1;entryDx=0;entryDy=0;endArrow=none;startFill=0;" edge="1" parent="1" source="64EpxRwVbbQgUjMSI_ka-2" target="64EpxRwVbbQgUjMSI_ka-88">
          <mxGeometry relative="1" as="geometry" />
        </mxCell>
        <mxCell id="64EpxRwVbbQgUjMSI_ka-131" style="edgeStyle=orthogonalEdgeStyle;rounded=1;orthogonalLoop=1;jettySize=auto;html=1;exitX=0;exitY=0;exitDx=0;exitDy=0;entryX=0.5;entryY=1;entryDx=0;entryDy=0;endArrow=none;startFill=0;" edge="1" parent="1" source="64EpxRwVbbQgUjMSI_ka-2" target="64EpxRwVbbQgUjMSI_ka-81">
          <mxGeometry relative="1" as="geometry">
            <Array as="points">
              <mxPoint x="130" y="180" />
              <mxPoint x="130" y="130" />
              <mxPoint x="110" y="130" />
            </Array>
          </mxGeometry>
        </mxCell>
        <mxCell id="64EpxRwVbbQgUjMSI_ka-132" style="edgeStyle=orthogonalEdgeStyle;rounded=1;orthogonalLoop=1;jettySize=auto;html=1;exitX=0.25;exitY=0;exitDx=0;exitDy=0;entryX=0.5;entryY=1;entryDx=0;entryDy=0;endArrow=none;startFill=0;" edge="1" parent="1" source="64EpxRwVbbQgUjMSI_ka-2" target="64EpxRwVbbQgUjMSI_ka-3">
          <mxGeometry relative="1" as="geometry">
            <Array as="points">
              <mxPoint x="173" y="140" />
              <mxPoint x="145" y="140" />
            </Array>
          </mxGeometry>
        </mxCell>
        <mxCell id="64EpxRwVbbQgUjMSI_ka-2" value="Biblioteca" style="rounded=0;whiteSpace=wrap;html=1;" vertex="1" parent="1">
          <mxGeometry x="155" y="180" width="70" height="30" as="geometry" />
        </mxCell>
        <mxCell id="64EpxRwVbbQgUjMSI_ka-3" value="citta&#39;" style="ellipse;whiteSpace=wrap;html=1;rounded=1;" vertex="1" parent="1">
          <mxGeometry x="120" y="50" width="50" height="30" as="geometry" />
        </mxCell>
        <mxCell id="64EpxRwVbbQgUjMSI_ka-168" style="edgeStyle=orthogonalEdgeStyle;rounded=1;orthogonalLoop=1;jettySize=auto;html=1;exitX=0.5;exitY=1;exitDx=0;exitDy=0;entryX=0.5;entryY=0;entryDx=0;entryDy=0;endArrow=none;startFill=0;" edge="1" parent="1" source="64EpxRwVbbQgUjMSI_ka-13" target="64EpxRwVbbQgUjMSI_ka-90">
          <mxGeometry relative="1" as="geometry" />
        </mxCell>
        <mxCell id="64EpxRwVbbQgUjMSI_ka-13" value="Contiene" style="rhombus;whiteSpace=wrap;html=1;rounded=0;" vertex="1" parent="1">
          <mxGeometry x="365" y="168.75" width="60" height="52.5" as="geometry" />
        </mxCell>
        <mxCell id="64EpxRwVbbQgUjMSI_ka-141" style="edgeStyle=orthogonalEdgeStyle;rounded=1;orthogonalLoop=1;jettySize=auto;html=1;exitX=0.5;exitY=0;exitDx=0;exitDy=0;entryX=0.5;entryY=1;entryDx=0;entryDy=0;endArrow=none;startFill=0;" edge="1" parent="1" source="64EpxRwVbbQgUjMSI_ka-15" target="64EpxRwVbbQgUjMSI_ka-17">
          <mxGeometry relative="1" as="geometry" />
        </mxCell>
        <mxCell id="64EpxRwVbbQgUjMSI_ka-143" style="edgeStyle=orthogonalEdgeStyle;rounded=1;orthogonalLoop=1;jettySize=auto;html=1;exitX=0.75;exitY=0;exitDx=0;exitDy=0;entryX=0.5;entryY=1;entryDx=0;entryDy=0;endArrow=none;startFill=0;" edge="1" parent="1" source="64EpxRwVbbQgUjMSI_ka-15" target="64EpxRwVbbQgUjMSI_ka-26">
          <mxGeometry relative="1" as="geometry" />
        </mxCell>
        <mxCell id="64EpxRwVbbQgUjMSI_ka-144" style="edgeStyle=orthogonalEdgeStyle;rounded=1;orthogonalLoop=1;jettySize=auto;html=1;exitX=1;exitY=0.25;exitDx=0;exitDy=0;entryX=0;entryY=0.5;entryDx=0;entryDy=0;endArrow=none;startFill=0;" edge="1" parent="1" source="64EpxRwVbbQgUjMSI_ka-15" target="64EpxRwVbbQgUjMSI_ka-28">
          <mxGeometry relative="1" as="geometry" />
        </mxCell>
        <mxCell id="64EpxRwVbbQgUjMSI_ka-145" style="edgeStyle=orthogonalEdgeStyle;rounded=1;orthogonalLoop=1;jettySize=auto;html=1;exitX=1;exitY=0.75;exitDx=0;exitDy=0;entryX=0;entryY=0.5;entryDx=0;entryDy=0;endArrow=none;startFill=0;" edge="1" parent="1" source="64EpxRwVbbQgUjMSI_ka-15" target="64EpxRwVbbQgUjMSI_ka-19">
          <mxGeometry relative="1" as="geometry" />
        </mxCell>
        <mxCell id="64EpxRwVbbQgUjMSI_ka-149" style="edgeStyle=orthogonalEdgeStyle;rounded=1;orthogonalLoop=1;jettySize=auto;html=1;exitX=0.25;exitY=1;exitDx=0;exitDy=0;entryX=0.5;entryY=0;entryDx=0;entryDy=0;endArrow=none;startFill=0;" edge="1" parent="1" source="64EpxRwVbbQgUjMSI_ka-15" target="64EpxRwVbbQgUjMSI_ka-48">
          <mxGeometry relative="1" as="geometry" />
        </mxCell>
        <mxCell id="64EpxRwVbbQgUjMSI_ka-210" style="edgeStyle=orthogonalEdgeStyle;rounded=1;orthogonalLoop=1;jettySize=auto;html=1;exitX=0;exitY=0.5;exitDx=0;exitDy=0;entryX=1;entryY=0.5;entryDx=0;entryDy=0;endArrow=none;startFill=0;" edge="1" parent="1" source="64EpxRwVbbQgUjMSI_ka-15" target="64EpxRwVbbQgUjMSI_ka-138">
          <mxGeometry relative="1" as="geometry" />
        </mxCell>
        <mxCell id="64EpxRwVbbQgUjMSI_ka-15" value="Libro" style="rounded=0;whiteSpace=wrap;html=1;" vertex="1" parent="1">
          <mxGeometry x="590" y="218.13" width="50" height="35" as="geometry" />
        </mxCell>
        <mxCell id="64EpxRwVbbQgUjMSI_ka-17" value="&lt;u&gt;ISBN&lt;/u&gt;" style="ellipse;whiteSpace=wrap;html=1;rounded=1;" vertex="1" parent="1">
          <mxGeometry x="595" y="150" width="40" height="30" as="geometry" />
        </mxCell>
        <mxCell id="64EpxRwVbbQgUjMSI_ka-19" value="Titolo" style="ellipse;whiteSpace=wrap;html=1;rounded=1;" vertex="1" parent="1">
          <mxGeometry x="680" y="252.5" width="40" height="27.5" as="geometry" />
        </mxCell>
        <mxCell id="64EpxRwVbbQgUjMSI_ka-22" value="Scritto" style="rhombus;whiteSpace=wrap;html=1;rounded=0;" vertex="1" parent="1">
          <mxGeometry x="700" y="317.5" width="50" height="47.5" as="geometry" />
        </mxCell>
        <mxCell id="64EpxRwVbbQgUjMSI_ka-154" style="edgeStyle=orthogonalEdgeStyle;rounded=1;orthogonalLoop=1;jettySize=auto;html=1;exitX=0.25;exitY=0;exitDx=0;exitDy=0;entryX=1;entryY=0.5;entryDx=0;entryDy=0;endArrow=none;startFill=0;" edge="1" parent="1" source="64EpxRwVbbQgUjMSI_ka-24" target="64EpxRwVbbQgUjMSI_ka-37">
          <mxGeometry relative="1" as="geometry" />
        </mxCell>
        <mxCell id="64EpxRwVbbQgUjMSI_ka-155" style="edgeStyle=orthogonalEdgeStyle;rounded=1;orthogonalLoop=1;jettySize=auto;html=1;exitX=0;exitY=0.5;exitDx=0;exitDy=0;entryX=1;entryY=0.5;entryDx=0;entryDy=0;endArrow=none;startFill=0;" edge="1" parent="1" source="64EpxRwVbbQgUjMSI_ka-24" target="64EpxRwVbbQgUjMSI_ka-39">
          <mxGeometry relative="1" as="geometry" />
        </mxCell>
        <mxCell id="64EpxRwVbbQgUjMSI_ka-156" style="edgeStyle=orthogonalEdgeStyle;rounded=1;orthogonalLoop=1;jettySize=auto;html=1;exitX=0.25;exitY=1;exitDx=0;exitDy=0;entryX=0.5;entryY=0;entryDx=0;entryDy=0;endArrow=none;startFill=0;" edge="1" parent="1" source="64EpxRwVbbQgUjMSI_ka-24" target="64EpxRwVbbQgUjMSI_ka-41">
          <mxGeometry relative="1" as="geometry">
            <Array as="points">
              <mxPoint x="712" y="420" />
              <mxPoint x="670" y="420" />
            </Array>
          </mxGeometry>
        </mxCell>
        <mxCell id="64EpxRwVbbQgUjMSI_ka-157" style="edgeStyle=orthogonalEdgeStyle;rounded=1;orthogonalLoop=1;jettySize=auto;html=1;exitX=0.5;exitY=1;exitDx=0;exitDy=0;entryX=0.5;entryY=0;entryDx=0;entryDy=0;endArrow=none;startFill=0;" edge="1" parent="1" source="64EpxRwVbbQgUjMSI_ka-24" target="64EpxRwVbbQgUjMSI_ka-42">
          <mxGeometry relative="1" as="geometry">
            <Array as="points">
              <mxPoint x="725" y="420" />
              <mxPoint x="750" y="420" />
            </Array>
          </mxGeometry>
        </mxCell>
        <mxCell id="64EpxRwVbbQgUjMSI_ka-158" style="edgeStyle=orthogonalEdgeStyle;rounded=1;orthogonalLoop=1;jettySize=auto;html=1;exitX=1;exitY=0.5;exitDx=0;exitDy=0;entryX=0.5;entryY=0;entryDx=0;entryDy=0;endArrow=none;startFill=0;" edge="1" parent="1" source="64EpxRwVbbQgUjMSI_ka-24" target="64EpxRwVbbQgUjMSI_ka-43">
          <mxGeometry relative="1" as="geometry">
            <Array as="points">
              <mxPoint x="795" y="400" />
            </Array>
          </mxGeometry>
        </mxCell>
        <mxCell id="64EpxRwVbbQgUjMSI_ka-159" style="edgeStyle=orthogonalEdgeStyle;rounded=1;orthogonalLoop=1;jettySize=auto;html=1;exitX=0.75;exitY=0;exitDx=0;exitDy=0;entryX=0;entryY=0.5;entryDx=0;entryDy=0;endArrow=none;startFill=0;" edge="1" parent="1" source="64EpxRwVbbQgUjMSI_ka-24" target="64EpxRwVbbQgUjMSI_ka-46">
          <mxGeometry relative="1" as="geometry">
            <Array as="points">
              <mxPoint x="738" y="365" />
            </Array>
          </mxGeometry>
        </mxCell>
        <mxCell id="64EpxRwVbbQgUjMSI_ka-182" style="edgeStyle=orthogonalEdgeStyle;rounded=1;orthogonalLoop=1;jettySize=auto;html=1;exitX=0.5;exitY=0;exitDx=0;exitDy=0;entryX=0.5;entryY=1;entryDx=0;entryDy=0;endArrow=none;startFill=0;" edge="1" parent="1" source="64EpxRwVbbQgUjMSI_ka-24" target="64EpxRwVbbQgUjMSI_ka-22">
          <mxGeometry relative="1" as="geometry" />
        </mxCell>
        <mxCell id="64EpxRwVbbQgUjMSI_ka-24" value="Autore" style="rounded=0;whiteSpace=wrap;html=1;" vertex="1" parent="1">
          <mxGeometry x="700" y="390" width="50" height="20" as="geometry" />
        </mxCell>
        <mxCell id="64EpxRwVbbQgUjMSI_ka-26" value="Trama" style="ellipse;whiteSpace=wrap;html=1;rounded=1;" vertex="1" parent="1">
          <mxGeometry x="660" y="142.5" width="40" height="30" as="geometry" />
        </mxCell>
        <mxCell id="64EpxRwVbbQgUjMSI_ka-28" value="Casa Editrice" style="ellipse;whiteSpace=wrap;html=1;rounded=1;" vertex="1" parent="1">
          <mxGeometry x="690" y="206.25" width="60" height="40" as="geometry" />
        </mxCell>
        <mxCell id="64EpxRwVbbQgUjMSI_ka-37" value="&lt;u&gt;ID&lt;/u&gt;" style="ellipse;whiteSpace=wrap;html=1;rounded=1;" vertex="1" parent="1">
          <mxGeometry x="625" y="355" width="40" height="20" as="geometry" />
        </mxCell>
        <mxCell id="64EpxRwVbbQgUjMSI_ka-39" value="Nome" style="ellipse;whiteSpace=wrap;html=1;rounded=1;" vertex="1" parent="1">
          <mxGeometry x="625" y="385" width="40" height="30" as="geometry" />
        </mxCell>
        <mxCell id="64EpxRwVbbQgUjMSI_ka-41" value="Cognome" style="ellipse;whiteSpace=wrap;html=1;rounded=1;" vertex="1" parent="1">
          <mxGeometry x="640" y="440" width="60" height="30" as="geometry" />
        </mxCell>
        <mxCell id="64EpxRwVbbQgUjMSI_ka-42" value="Nascita" style="ellipse;whiteSpace=wrap;html=1;rounded=1;" vertex="1" parent="1">
          <mxGeometry x="725" y="440" width="50" height="30" as="geometry" />
        </mxCell>
        <mxCell id="64EpxRwVbbQgUjMSI_ka-43" value="Morte" style="ellipse;whiteSpace=wrap;html=1;rounded=1;" vertex="1" parent="1">
          <mxGeometry x="775" y="415" width="40" height="30" as="geometry" />
        </mxCell>
        <mxCell id="64EpxRwVbbQgUjMSI_ka-46" value="Biografia" style="ellipse;whiteSpace=wrap;html=1;rounded=1;" vertex="1" parent="1">
          <mxGeometry x="765" y="350" width="60" height="30" as="geometry" />
        </mxCell>
        <mxCell id="64EpxRwVbbQgUjMSI_ka-48" value="Lingua" style="ellipse;whiteSpace=wrap;html=1;rounded=1;" vertex="1" parent="1">
          <mxGeometry x="580" y="276.25" width="45" height="25" as="geometry" />
        </mxCell>
        <mxCell id="64EpxRwVbbQgUjMSI_ka-178" style="edgeStyle=orthogonalEdgeStyle;rounded=1;orthogonalLoop=1;jettySize=auto;html=1;exitX=0.5;exitY=0;exitDx=0;exitDy=0;entryX=1;entryY=0.5;entryDx=0;entryDy=0;endArrow=none;startFill=0;" edge="1" parent="1" source="64EpxRwVbbQgUjMSI_ka-50" target="64EpxRwVbbQgUjMSI_ka-51">
          <mxGeometry relative="1" as="geometry" />
        </mxCell>
        <mxCell id="64EpxRwVbbQgUjMSI_ka-179" style="edgeStyle=orthogonalEdgeStyle;rounded=1;orthogonalLoop=1;jettySize=auto;html=1;exitX=0.5;exitY=1;exitDx=0;exitDy=0;entryX=1;entryY=0.5;entryDx=0;entryDy=0;endArrow=none;startFill=0;" edge="1" parent="1" source="64EpxRwVbbQgUjMSI_ka-50" target="64EpxRwVbbQgUjMSI_ka-52">
          <mxGeometry relative="1" as="geometry" />
        </mxCell>
        <mxCell id="64EpxRwVbbQgUjMSI_ka-183" style="edgeStyle=orthogonalEdgeStyle;rounded=1;orthogonalLoop=1;jettySize=auto;html=1;exitX=0.75;exitY=0;exitDx=0;exitDy=0;entryX=0;entryY=0.5;entryDx=0;entryDy=0;endArrow=none;startFill=0;" edge="1" parent="1" source="64EpxRwVbbQgUjMSI_ka-50" target="64EpxRwVbbQgUjMSI_ka-66">
          <mxGeometry relative="1" as="geometry" />
        </mxCell>
        <mxCell id="64EpxRwVbbQgUjMSI_ka-184" style="edgeStyle=orthogonalEdgeStyle;rounded=1;orthogonalLoop=1;jettySize=auto;html=1;exitX=1;exitY=0.5;exitDx=0;exitDy=0;entryX=0;entryY=0.5;entryDx=0;entryDy=0;endArrow=none;startFill=0;" edge="1" parent="1" source="64EpxRwVbbQgUjMSI_ka-50" target="64EpxRwVbbQgUjMSI_ka-70">
          <mxGeometry relative="1" as="geometry" />
        </mxCell>
        <mxCell id="64EpxRwVbbQgUjMSI_ka-185" style="edgeStyle=orthogonalEdgeStyle;rounded=1;orthogonalLoop=1;jettySize=auto;html=1;exitX=0.75;exitY=1;exitDx=0;exitDy=0;entryX=0;entryY=0.5;entryDx=0;entryDy=0;endArrow=none;startFill=0;" edge="1" parent="1" source="64EpxRwVbbQgUjMSI_ka-50" target="64EpxRwVbbQgUjMSI_ka-64">
          <mxGeometry relative="1" as="geometry">
            <Array as="points">
              <mxPoint x="497" y="530" />
              <mxPoint x="520" y="530" />
            </Array>
          </mxGeometry>
        </mxCell>
        <mxCell id="64EpxRwVbbQgUjMSI_ka-50" value="Utente" style="rounded=0;whiteSpace=wrap;html=1;" vertex="1" parent="1">
          <mxGeometry x="460" y="480" width="50" height="20" as="geometry" />
        </mxCell>
        <mxCell id="64EpxRwVbbQgUjMSI_ka-194" style="edgeStyle=orthogonalEdgeStyle;rounded=1;orthogonalLoop=1;jettySize=auto;html=1;exitX=0;exitY=0.25;exitDx=0;exitDy=0;entryX=1;entryY=0.5;entryDx=0;entryDy=0;endArrow=none;startFill=0;" edge="1" parent="1" source="64EpxRwVbbQgUjMSI_ka-51" target="64EpxRwVbbQgUjMSI_ka-68">
          <mxGeometry relative="1" as="geometry" />
        </mxCell>
        <mxCell id="64EpxRwVbbQgUjMSI_ka-195" style="edgeStyle=orthogonalEdgeStyle;rounded=1;orthogonalLoop=1;jettySize=auto;html=1;exitX=0;exitY=0.75;exitDx=0;exitDy=0;entryX=1;entryY=0.5;entryDx=0;entryDy=0;endArrow=none;startFill=0;" edge="1" parent="1" source="64EpxRwVbbQgUjMSI_ka-51" target="64EpxRwVbbQgUjMSI_ka-55">
          <mxGeometry relative="1" as="geometry" />
        </mxCell>
        <mxCell id="64EpxRwVbbQgUjMSI_ka-204" style="edgeStyle=orthogonalEdgeStyle;rounded=1;orthogonalLoop=1;jettySize=auto;html=1;exitX=0.5;exitY=0;exitDx=0;exitDy=0;entryX=0.5;entryY=1;entryDx=0;entryDy=0;endArrow=none;startFill=0;" edge="1" parent="1" source="64EpxRwVbbQgUjMSI_ka-51" target="64EpxRwVbbQgUjMSI_ka-202">
          <mxGeometry relative="1" as="geometry" />
        </mxCell>
        <mxCell id="64EpxRwVbbQgUjMSI_ka-51" value="Lettore" style="rounded=0;whiteSpace=wrap;html=1;" vertex="1" parent="1">
          <mxGeometry x="370" y="448.45" width="50" height="21.55" as="geometry" />
        </mxCell>
        <mxCell id="64EpxRwVbbQgUjMSI_ka-52" value="Bibliotecario" style="rounded=0;whiteSpace=wrap;html=1;" vertex="1" parent="1">
          <mxGeometry x="347.5" y="520" width="95" height="24.85" as="geometry" />
        </mxCell>
        <mxCell id="64EpxRwVbbQgUjMSI_ka-55" value="Categoria" style="ellipse;whiteSpace=wrap;html=1;rounded=1;" vertex="1" parent="1">
          <mxGeometry x="270" y="469.23" width="55" height="20" as="geometry" />
        </mxCell>
        <mxCell id="64EpxRwVbbQgUjMSI_ka-64" value="&lt;u&gt;Codice Fiscale&lt;/u&gt;" style="ellipse;whiteSpace=wrap;html=1;rounded=1;" vertex="1" parent="1">
          <mxGeometry x="540" y="514.85" width="90" height="30" as="geometry" />
        </mxCell>
        <mxCell id="64EpxRwVbbQgUjMSI_ka-66" value="Nome" style="ellipse;whiteSpace=wrap;html=1;rounded=1;" vertex="1" parent="1">
          <mxGeometry x="540" y="440" width="60" height="30" as="geometry" />
        </mxCell>
        <mxCell id="64EpxRwVbbQgUjMSI_ka-68" value="Ritardi" style="ellipse;whiteSpace=wrap;html=1;rounded=1;" vertex="1" parent="1">
          <mxGeometry x="270" y="429.23" width="55" height="20" as="geometry" />
        </mxCell>
        <mxCell id="64EpxRwVbbQgUjMSI_ka-70" value="Cognome" style="ellipse;whiteSpace=wrap;html=1;rounded=1;" vertex="1" parent="1">
          <mxGeometry x="540" y="476.25" width="60" height="27.5" as="geometry" />
        </mxCell>
        <mxCell id="64EpxRwVbbQgUjMSI_ka-79" value="Via" style="ellipse;whiteSpace=wrap;html=1;rounded=1;" vertex="1" parent="1">
          <mxGeometry x="212.5" y="60" width="40" height="30" as="geometry" />
        </mxCell>
        <mxCell id="64EpxRwVbbQgUjMSI_ka-80" value="Civico" style="ellipse;whiteSpace=wrap;html=1;rounded=1;" vertex="1" parent="1">
          <mxGeometry x="242.5" y="107.5" width="50" height="25" as="geometry" />
        </mxCell>
        <mxCell id="64EpxRwVbbQgUjMSI_ka-81" value="cap" style="ellipse;whiteSpace=wrap;html=1;rounded=1;" vertex="1" parent="1">
          <mxGeometry x="90" y="77.5" width="40" height="30" as="geometry" />
        </mxCell>
        <mxCell id="64EpxRwVbbQgUjMSI_ka-88" value="Provincia" style="ellipse;whiteSpace=wrap;html=1;rounded=1;" vertex="1" parent="1">
          <mxGeometry x="60" y="133.75" width="60" height="30" as="geometry" />
        </mxCell>
        <mxCell id="64EpxRwVbbQgUjMSI_ka-166" style="edgeStyle=orthogonalEdgeStyle;rounded=1;orthogonalLoop=1;jettySize=auto;html=1;exitX=0;exitY=0.5;exitDx=0;exitDy=0;entryX=1;entryY=0.5;entryDx=0;entryDy=0;endArrow=none;startFill=0;" edge="1" parent="1" source="64EpxRwVbbQgUjMSI_ka-90" target="64EpxRwVbbQgUjMSI_ka-165">
          <mxGeometry relative="1" as="geometry" />
        </mxCell>
        <mxCell id="64EpxRwVbbQgUjMSI_ka-171" style="edgeStyle=orthogonalEdgeStyle;rounded=1;orthogonalLoop=1;jettySize=auto;html=1;exitX=0.75;exitY=0;exitDx=0;exitDy=0;entryX=0;entryY=0.5;entryDx=0;entryDy=0;startArrow=none;startFill=0;endArrow=none;" edge="1" parent="1" source="64EpxRwVbbQgUjMSI_ka-90" target="64EpxRwVbbQgUjMSI_ka-138">
          <mxGeometry relative="1" as="geometry" />
        </mxCell>
        <mxCell id="64EpxRwVbbQgUjMSI_ka-189" style="edgeStyle=orthogonalEdgeStyle;rounded=1;orthogonalLoop=1;jettySize=auto;html=1;exitX=1;exitY=0.5;exitDx=0;exitDy=0;entryX=0;entryY=0.5;entryDx=0;entryDy=0;endArrow=none;startFill=0;" edge="1" parent="1" source="64EpxRwVbbQgUjMSI_ka-90" target="64EpxRwVbbQgUjMSI_ka-94">
          <mxGeometry relative="1" as="geometry" />
        </mxCell>
        <mxCell id="64EpxRwVbbQgUjMSI_ka-191" style="edgeStyle=orthogonalEdgeStyle;rounded=1;orthogonalLoop=1;jettySize=auto;html=1;exitX=0.75;exitY=1;exitDx=0;exitDy=0;entryX=0;entryY=0.5;entryDx=0;entryDy=0;endArrow=none;startFill=0;" edge="1" parent="1" source="64EpxRwVbbQgUjMSI_ka-90" target="64EpxRwVbbQgUjMSI_ka-105">
          <mxGeometry relative="1" as="geometry" />
        </mxCell>
        <mxCell id="64EpxRwVbbQgUjMSI_ka-203" style="edgeStyle=orthogonalEdgeStyle;rounded=1;orthogonalLoop=1;jettySize=auto;html=1;exitX=0.5;exitY=1;exitDx=0;exitDy=0;entryX=0.5;entryY=0;entryDx=0;entryDy=0;endArrow=none;startFill=0;" edge="1" parent="1" source="64EpxRwVbbQgUjMSI_ka-90" target="64EpxRwVbbQgUjMSI_ka-202">
          <mxGeometry relative="1" as="geometry" />
        </mxCell>
        <mxCell id="64EpxRwVbbQgUjMSI_ka-90" value="Copia" style="rounded=0;whiteSpace=wrap;html=1;" vertex="1" parent="1">
          <mxGeometry x="360" y="265" width="70" height="30" as="geometry" />
        </mxCell>
        <mxCell id="64EpxRwVbbQgUjMSI_ka-94" value="&lt;u&gt;ID&lt;/u&gt;" style="ellipse;whiteSpace=wrap;html=1;rounded=1;" vertex="1" parent="1">
          <mxGeometry x="460" y="267.5" width="30" height="25" as="geometry" />
        </mxCell>
        <mxCell id="64EpxRwVbbQgUjMSI_ka-105" value="Disponibile" style="ellipse;whiteSpace=wrap;html=1;rounded=1;" vertex="1" parent="1">
          <mxGeometry x="445" y="301.25" width="80" height="38.75" as="geometry" />
        </mxCell>
        <mxCell id="64EpxRwVbbQgUjMSI_ka-109" value="&lt;u&gt;ID&lt;/u&gt;" style="ellipse;whiteSpace=wrap;html=1;rounded=1;" vertex="1" parent="1">
          <mxGeometry x="297.5" y="321.88" width="30" height="20" as="geometry" />
        </mxCell>
        <mxCell id="64EpxRwVbbQgUjMSI_ka-113" value="Data" style="ellipse;whiteSpace=wrap;html=1;rounded=1;" vertex="1" parent="1">
          <mxGeometry x="287.5" y="358.76" width="40" height="21.24" as="geometry" />
        </mxCell>
        <mxCell id="64EpxRwVbbQgUjMSI_ka-115" value="Scadenza" style="ellipse;whiteSpace=wrap;html=1;rounded=1;" vertex="1" parent="1">
          <mxGeometry x="270" y="390" width="60" height="25" as="geometry" />
        </mxCell>
        <mxCell id="64EpxRwVbbQgUjMSI_ka-119" value="M:N" style="text;html=1;align=center;verticalAlign=middle;whiteSpace=wrap;rounded=0;" vertex="1" parent="1">
          <mxGeometry x="255" y="20" width="55" height="22.5" as="geometry" />
        </mxCell>
        <mxCell id="64EpxRwVbbQgUjMSI_ka-120" value="1:N" style="text;html=1;align=center;verticalAlign=middle;whiteSpace=wrap;rounded=0;" vertex="1" parent="1">
          <mxGeometry x="270" y="172.5" width="40" height="22.5" as="geometry" />
        </mxCell>
        <mxCell id="64EpxRwVbbQgUjMSI_ka-126" value="&lt;u&gt;ID&lt;/u&gt;" style="ellipse;whiteSpace=wrap;html=1;rounded=1;" vertex="1" parent="1">
          <mxGeometry x="170" y="90" width="40" height="20" as="geometry" />
        </mxCell>
        <mxCell id="64EpxRwVbbQgUjMSI_ka-138" value="Rappresenta" style="rhombus;whiteSpace=wrap;html=1;rounded=0;" vertex="1" parent="1">
          <mxGeometry x="460" y="206.25" width="85" height="58.75" as="geometry" />
        </mxCell>
        <mxCell id="64EpxRwVbbQgUjMSI_ka-169" style="edgeStyle=orthogonalEdgeStyle;rounded=1;orthogonalLoop=1;jettySize=auto;html=1;exitX=0.5;exitY=0;exitDx=0;exitDy=0;entryX=0.5;entryY=1;entryDx=0;entryDy=0;endArrow=none;startFill=0;" edge="1" parent="1" source="64EpxRwVbbQgUjMSI_ka-165" target="64EpxRwVbbQgUjMSI_ka-2">
          <mxGeometry relative="1" as="geometry" />
        </mxCell>
        <mxCell id="64EpxRwVbbQgUjMSI_ka-165" value="Locazione" style="rhombus;whiteSpace=wrap;html=1;rounded=0;" vertex="1" parent="1">
          <mxGeometry x="150" y="255" width="80" height="50" as="geometry" />
        </mxCell>
        <mxCell id="64EpxRwVbbQgUjMSI_ka-181" style="edgeStyle=orthogonalEdgeStyle;rounded=1;orthogonalLoop=1;jettySize=auto;html=1;exitX=0.5;exitY=1;exitDx=0;exitDy=0;entryX=0.5;entryY=0;entryDx=0;entryDy=0;endArrow=none;startFill=0;" edge="1" parent="1" source="64EpxRwVbbQgUjMSI_ka-15" target="64EpxRwVbbQgUjMSI_ka-22">
          <mxGeometry relative="1" as="geometry">
            <mxPoint x="700" y="310" as="targetPoint" />
            <Array as="points">
              <mxPoint x="615" y="270" />
              <mxPoint x="650" y="270" />
              <mxPoint x="650" y="300" />
              <mxPoint x="725" y="300" />
            </Array>
          </mxGeometry>
        </mxCell>
        <mxCell id="64EpxRwVbbQgUjMSI_ka-205" style="edgeStyle=orthogonalEdgeStyle;rounded=1;orthogonalLoop=1;jettySize=auto;html=1;exitX=0.25;exitY=0;exitDx=0;exitDy=0;entryX=1;entryY=0.5;entryDx=0;entryDy=0;endArrow=none;startFill=0;" edge="1" parent="1" source="64EpxRwVbbQgUjMSI_ka-202" target="64EpxRwVbbQgUjMSI_ka-109">
          <mxGeometry relative="1" as="geometry" />
        </mxCell>
        <mxCell id="64EpxRwVbbQgUjMSI_ka-206" style="edgeStyle=orthogonalEdgeStyle;rounded=1;orthogonalLoop=1;jettySize=auto;html=1;exitX=0;exitY=0.5;exitDx=0;exitDy=0;entryX=1;entryY=0.5;entryDx=0;entryDy=0;endArrow=none;startFill=0;" edge="1" parent="1" source="64EpxRwVbbQgUjMSI_ka-202" target="64EpxRwVbbQgUjMSI_ka-113">
          <mxGeometry relative="1" as="geometry" />
        </mxCell>
        <mxCell id="64EpxRwVbbQgUjMSI_ka-207" style="edgeStyle=orthogonalEdgeStyle;rounded=1;orthogonalLoop=1;jettySize=auto;html=1;exitX=0.25;exitY=1;exitDx=0;exitDy=0;entryX=1;entryY=0.5;entryDx=0;entryDy=0;endArrow=none;startFill=0;" edge="1" parent="1" source="64EpxRwVbbQgUjMSI_ka-202" target="64EpxRwVbbQgUjMSI_ka-115">
          <mxGeometry relative="1" as="geometry" />
        </mxCell>
        <mxCell id="64EpxRwVbbQgUjMSI_ka-202" value="Prestito" style="rounded=0;whiteSpace=wrap;html=1;" vertex="1" parent="1">
          <mxGeometry x="360" y="360" width="70" height="20" as="geometry" />
        </mxCell>
        <mxCell id="64EpxRwVbbQgUjMSI_ka-208" value="N:1" style="text;html=1;align=center;verticalAlign=middle;whiteSpace=wrap;rounded=0;" vertex="1" parent="1">
          <mxGeometry x="550" y="217.5" width="30" height="17.5" as="geometry" />
        </mxCell>
      </root>
    </mxGraphModel>
  </diagram>
</mxfile>
